<svg height='300px' width='300px'  fill="#ffffff" xmlns="http://www.w3.org/2000/svg" xmlns:xlink="http://www.w3.org/1999/xlink" version="1.1" x="0px" y="0px" viewBox="206 -116 1024 1024" style="enable-background:new 206 -116 1024 1024;" xml:space="preserve"><g><g><g><path d="M808.4,721.5c-20.3,0-40.6,0-61,0c-32.2,0-64.4,0-96.7,0c-7.5,0-14.9,0-22.4,0c5.8,5.8,11.7,11.7,17.5,17.5     c0-28,0-56,0-84c-5.8,5.8-11.7,11.7-17.5,17.5c20.3,0,40.6,0,61,0c32.2,0,64.4,0,96.7,0c7.5,0,14.9,0,22.4,0     c-5.8-5.8-11.7-11.7-17.5-17.5c0,28,0,56,0,84c0,9.2,8,17.9,17.5,17.5s17.5-7.7,17.5-17.5c0-28,0-56,0-84c0-9.5-8-17.5-17.5-17.5     c-20.3,0-40.6,0-61,0c-32.2,0-64.4,0-96.7,0c-7.5,0-14.9,0-22.4,0c-9.5,0-17.5,8-17.5,17.5c0,28,0,56,0,84     c0,9.5,8,17.5,17.5,17.5c20.3,0,40.6,0,61,0c32.2,0,64.4,0,96.7,0c7.5,0,14.9,0,22.4,0c9.2,0,17.9-8,17.5-17.5     S818.2,721.5,808.4,721.5z"></path></g></g><g><g><path d="M880.4,721.5c-36.6,0-73.2,0-109.8,0c-58,0-116,0-174,0c-13.4,0-26.8,0-40.2,0c-9.2,0-17.9,8-17.5,17.5     s7.7,17.5,17.5,17.5c36.6,0,73.2,0,109.8,0c58,0,116,0,174,0c13.4,0,26.8,0,40.2,0c9.2,0,17.9-8,17.5-17.5     S890.2,721.5,880.4,721.5L880.4,721.5z"></path></g></g><g><g><path d="M789.2,637.5c-42,0-84.1,0-126.1,0c-5.9,0-11.9,0-17.8,0c5.8,5.8,11.7,11.7,17.5,17.5c0-24.3,0-48.6,0-73     c0-38.7,0-77.4,0-116.2c0-8.8,0-17.7,0-26.5c-5.8,5.8-11.7,11.7-17.5,17.5c42,0,84.1,0,126.1,0c5.9,0,11.9,0,17.8,0     c-5.8-5.8-11.7-11.7-17.5-17.5c0,24.3,0,48.6,0,73c0,38.7,0,77.4,0,116.2c0,8.8,0,17.7,0,26.5c0,9.2,8,17.9,17.5,17.5     s17.5-7.7,17.5-17.5c0-24.3,0-48.6,0-73c0-38.7,0-77.4,0-116.2c0-8.8,0-17.7,0-26.5c0-9.5-8-17.5-17.5-17.5c-42,0-84.1,0-126.1,0     c-5.9,0-11.9,0-17.8,0c-9.5,0-17.5,8-17.5,17.5c0,24.3,0,48.6,0,73c0,38.7,0,77.4,0,116.2c0,8.8,0,17.7,0,26.5     c0,9.5,8,17.5,17.5,17.5c42,0,84.1,0,126.1,0c5.9,0,11.9,0,17.8,0c9.2,0,17.9-8,17.5-17.5S799,637.5,789.2,637.5z"></path></g></g><g><g><path d="M1059,637.5c-42,0-84.1,0-126.1,0c-5.9,0-11.9,0-17.8,0c5.8,5.8,11.7,11.7,17.5,17.5c0-32.6,0-65.2,0-97.8     c0-51.9,0-103.8,0-155.7c0-11.8,0-23.7,0-35.5c-5.8,5.8-11.7,11.7-17.5,17.5c42,0,84.1,0,126.1,0c5.9,0,11.9,0,17.8,0     c-5.8-5.8-11.7-11.7-17.5-17.5c0,32.6,0,65.2,0,97.8c0,51.9,0,103.8,0,155.7c0,11.8,0,23.7,0,35.5c0,9.2,8,17.9,17.5,17.5     s17.5-7.7,17.5-17.5c0-32.6,0-65.2,0-97.8c0-51.9,0-103.8,0-155.7c0-11.8,0-23.7,0-35.5c0-9.5-8-17.5-17.5-17.5     c-42,0-84.1,0-126.1,0c-5.9,0-11.9,0-17.8,0c-9.5,0-17.5,8-17.5,17.5c0,32.6,0,65.2,0,97.8c0,51.9,0,103.8,0,155.7     c0,11.8,0,23.7,0,35.5c0,9.5,8,17.5,17.5,17.5c42,0,84.1,0,126.1,0c5.9,0,11.9,0,17.8,0c9.2,0,17.9-8,17.5-17.5     C1076,645.5,1068.8,637.5,1059,637.5z"></path></g></g><g><g><path d="M382.6,292c14.7,0,29.5,0,44.2,0c13.4,0,25.8-4.2,35.6-13.5c12.7-12.2,17.8-32,12.1-48.7c-5.9-17.4-20.8-30-39-32.5     c-8.3-1.1-17.1-0.8-25.5-0.7c0.4,0,3,0.8,1.3,0.1c-0.8-0.3-1.7-0.4-2.6-0.6c-0.6-0.2-1.2-0.5-1.9-0.6c3.3,0.9,1.6,0.8,0.6,0.2     c-0.7-0.5-4.3-2.8-2.6-1.4c1.9,1.5-0.3-0.3-0.7-0.7c-0.7-0.8-1.5-1.6-2.2-2.3c0.2,0.2,1.5,2.6,0.8,1c-0.3-0.8-0.9-1.5-1.4-2.2     c-0.3-0.6-0.6-1.2-0.9-1.7c1.8,2.9,0.6,1.7,0.3,0.5c-0.4-1.5-0.7-6-0.7-1.9c0-1.8-0.1-3.6,0-5.5c-0.2,3.5,0.1,0.4,0.5-1.3     c0.1-0.6,1.2-3.2,0.2-1c-0.9,2.1,0,0.1,0.2-0.3c0.7-1.2,3.7-4.6,0.9-1.8c1.2-1.2,2.4-2.5,3.6-3.6c-2.5,2.3-0.1,0.3,1.2-0.5     c0.5-0.3,3.1-1.5,0.8-0.5c-2.1,0.9,0,0,0.4-0.1c1.4-0.4,6.1-0.7,1.9-0.7c0.9,0,1.9-0.1,2.9-0.1c15.5-0.3,31,0,46.4,0     c9.2,0,17.9-8,17.5-17.5s-7.7-17.5-17.5-17.5c-14.7,0-29.5,0-44.2,0c-13.4,0-25.8,4.2-35.6,13.5c-12.7,12.2-17.8,32-12.1,48.7     c5.9,17.4,20.8,30,39,32.5c8.3,1.1,17.1,0.8,25.5,0.7c-0.4,0-3-0.8-1.3-0.1c0.8,0.3,1.7,0.4,2.6,0.6c0.6,0.2,1.2,0.5,1.9,0.6     c-3.3-0.9-1.6-0.8-0.6-0.2c0.7,0.5,4.3,2.8,2.6,1.4c-1.9-1.5,0.3,0.3,0.7,0.7c0.7,0.8,1.5,1.6,2.2,2.3c-0.2-0.2-1.5-2.6-0.8-1     c0.3,0.8,0.9,1.5,1.4,2.2c0.3,0.6,0.6,1.2,0.9,1.7c-1.8-2.9-0.6-1.7-0.3-0.5c0.4,1.5,0.7,6,0.7,1.9c0,1.8,0.1,3.6,0,5.5     c0.2-3.5-0.1-0.4-0.5,1.3c-0.1,0.6-1.2,3.2-0.2,1c0.9-2.1,0-0.1-0.2,0.3c-0.7,1.2-3.7,4.6-0.9,1.8c-1.2,1.2-2.4,2.5-3.6,3.6     c2.5-2.3,0.1-0.3-1.2,0.5c-0.5,0.3-3.1,1.5-0.8,0.5c2.1-0.9,0,0-0.4,0.1c-1.4,0.4-6.1,0.7-1.9,0.7c-0.9,0-1.9,0.1-2.9,0.1     c-15.5,0.3-31,0-46.4,0c-9.2,0-17.9,8-17.5,17.5C365.6,284,372.8,292,382.6,292L382.6,292z"></path></g></g><g><g><path d="M438.5,153.9c0-10,0-20.1,0-30.1c0-9.2-8-17.9-17.5-17.5s-17.5,7.7-17.5,17.5c0,10,0,20.1,0,30.1c0,9.2,8,17.9,17.5,17.5     S438.5,163.7,438.5,153.9L438.5,153.9z"></path></g></g><g><g><path d="M438.5,304.6c0-10,0-20.1,0-30.1c0-9.2-8-17.9-17.5-17.5s-17.5,7.7-17.5,17.5c0,10,0,20.1,0,30.1c0,9.2,8,17.9,17.5,17.5     S438.5,314.4,438.5,304.6L438.5,304.6z"></path></g></g><g><g><path d="M386.6,468.9c32.8-18.6,65.5-37.2,98.3-55.8c52.2-29.6,104.3-59.3,156.5-88.9c11.9-6.8,23.8-13.5,35.7-20.3     c-5.9,0-11.8,0-17.7,0c39.5,18.4,79,36.9,118.5,55.3c5.5,2.6,11,5.2,16.6,7.7c7.9,3.7,14.6,2.5,21.2-2.7     c26.4-21,52.9-42,79.3-62.9c41.8-33.2,83.6-66.3,125.4-99.5c9.6-7.6,19.2-15.2,28.7-22.8c7.2-5.7,6.4-18.9,0-24.7     c-7.6-7-17.1-6.1-24.7,0c-26.4,21-52.9,42-79.3,62.9c-41.8,33.2-83.6,66.3-125.4,99.5c-9.6,7.6-19.2,15.2-28.7,22.8     c7.1-0.9,14.1-1.8,21.2-2.7c-31.6-14.7-63.2-29.5-94.8-44.2c-13.1-6.1-26.2-12.4-39.4-18.4c-6.3-2.8-12.1-3.5-18.5-0.3     c-0.5,0.3-1,0.6-1.5,0.9c-3,1.6-5.9,3.3-8.8,5c-30.3,17.2-60.5,34.4-90.8,51.6c-39.9,22.6-79.7,45.3-119.6,67.9     c-22.9,13-46.1,25.5-68.7,39c-0.3,0.2-0.7,0.4-1,0.6c-8,4.5-11.4,16.1-6.3,23.9C367.9,470.7,378.1,473.8,386.6,468.9L386.6,468.9     z"></path></g></g><g><g><path d="M975.4,176.5c20.5,2.5,40.9,5,61.4,7.6c-5.8-5.8-11.7-11.7-17.5-17.5c-1.1,20.5-2.2,41-3.4,61.4     c-0.5,9.2,8.4,17.9,17.5,17.5c9.9-0.4,17-7.7,17.5-17.5c1.1-20.5,2.2-41,3.4-61.4c0.6-10.3-8.5-16.4-17.5-17.5     c-20.5-2.5-40.9-5-61.4-7.6c-9.1-1.1-17.9,8.9-17.5,17.5C958.3,169.4,965.6,175.3,975.4,176.5L975.4,176.5z"></path></g></g><g><g><path d="M521.7,637.5c-42,0-84.1,0-126.1,0c-5.9,0-11.9,0-17.8,0c5.8,5.8,11.7,11.7,17.5,17.5c0-38.1,0-76.2,0-114.3     c0-5.4,0-10.7,0-16.1c-5.8,5.8-11.7,11.7-17.5,17.5c42,0,84.1,0,126.1,0c5.9,0,11.9,0,17.8,0c-5.8-5.8-11.7-11.7-17.5-17.5     c0,38.1,0,76.2,0,114.3c0,5.4,0,10.7,0,16.1c0,9.2,8,17.9,17.5,17.5s17.5-7.7,17.5-17.5c0-38.1,0-76.2,0-114.3     c0-5.4,0-10.7,0-16.1c0-9.5-8-17.5-17.5-17.5c-42,0-84.1,0-126.1,0c-5.9,0-11.9,0-17.8,0c-9.5,0-17.5,8-17.5,17.5     c0,38.1,0,76.2,0,114.3c0,5.4,0,10.7,0,16.1c0,9.5,8,17.5,17.5,17.5c42,0,84.1,0,126.1,0c5.9,0,11.9,0,17.8,0     c9.2,0,17.9-8,17.5-17.5C538.8,645.5,531.5,637.5,521.7,637.5z"></path></g></g><g><g><path d="M1150.5,633c0,0.4-0.1,2.8,0.1,0.4c0.2-2.6-0.2,0.2-0.1,0.3c0.1,0.6-1.5,3.6,0.4-0.4c-0.3,0.6-0.6,1.2-0.9,1.7     c-0.3,0.6-0.7,1.1-1,1.7c0.2-0.3,1.2-2.6,0.7-1c-0.2,0.5-1.1,1-1.4,1.4c0.8-1,2.3-1.4,0.4-0.4c-0.8,0.4-1.5,0.8-2.3,1.2     c0.4-0.2,2.8-0.7,1.1-0.6c-0.6,0-1.4,0.3-2,0.5c0.4-0.1,3.1,0,1.2-0.3c-0.3,0-0.5,0-0.8,0c-0.5,0-1.1,0-1.6,0c-3.1,0-6.1,0-9.2,0     c-13.4,0-26.9,0-40.3,0c-21.6,0-43.1,0-64.7,0c-27.8,0-55.6,0-83.3,0c-32.1,0-64.2,0-96.3,0c-34.5,0-69,0-103.6,0     c-35,0-70.1,0-105.1,0c-33.7,0-67.3,0-101,0c-30.4,0-60.8,0-91.2,0c-25.2,0-50.4,0-75.6,0c-18.1,0-36.3,0-54.4,0     c-9.2,0-18.3,0-27.5,0c-0.7,0-1.3,0-2,0c-0.7,0-2.8,0-0.6,0.1c2.3,0.2,0.1-0.1-0.3-0.1c-2.7-0.4-0.4,0,0.4,0.4     c-1.2-0.6-2.3-1.3-3.4-1.9c0.3,0.2,2.6,1.2,1,0.7c-0.5-0.2-1-1.1-1.4-1.4c0.3,0.3,1.4,2.6,0.8,1c-0.4-1-1.1-1.9-1.6-2.9     c1.3,2.7,0.6,0.8,0.2-0.9c0.4,1.3,0.2,2.7,0.2,0.5v-0.1c0-0.3,0-0.6,0-0.9c0-1.4,0-2.8,0-4.2c0-14.6,0-29.3,0-43.9     c0-25.9,0-51.8,0-77.7c0-32.7,0-65.3,0-98c0-35,0-70,0-104.9c0-32.8,0-65.6,0-98.5c0-26.2,0-52.4,0-78.6c0-15.1,0-30.2,0-45.3     c0-1.5,0-3,0-4.6c0-0.4,0-0.7,0-1.1c0-1.5,0.4-2-0.2,0.2c0.5-1.7,1.2-3.6-0.2-0.9c0.6-1.2,1.2-2.3,1.9-3.4     c-2.4,3.7,1.7-1.3,0,0.2c-1.6,1.4-0.1,0.1,0.3-0.2c0.8-0.4,1.5-0.8,2.3-1.2c-2.7,1.3-0.8,0.6,0.9,0.2c-3.3,0.9-1.8,0.2-0.5,0.2     h0.1c0.6,0,1.2,0,1.7,0c8.8,0,17.7,0,26.5,0c17.9,0,35.7,0,53.6,0c25,0,50,0,75,0c30.2,0,60.5,0,90.7,0c33.6,0,67.2,0,100.8,0     c35,0,70,0,105.1,0c34.6,0,69.1,0,103.7,0c32.2,0,64.4,0,96.6,0c27.9,0,55.9,0,83.8,0c21.8,0,43.6,0,65.4,0c13.7,0,27.5,0,41.2,0     c3.3,0,6.5,0,9.8,0c0.6,0,1.2,0,1.8,0h0.1l0,0c0.4,0,2.8,0.1,0.4-0.1c-2.4-0.2,0.5,0.3,1,0.3c1.7,0.1-0.7-0.4-1.1-0.6     c0.6,0.3,1.2,0.6,1.7,0.9c0.6,0.3,1.1,0.7,1.7,1c-2.8-1.6-1.4-1.1-0.6-0.2c2.2,2.1-0.9-2.2,0.5,0.5c0.3,0.5,0.6,1.2,0.9,1.7     c1.1,1.5-0.5-2.4-0.3-0.5c0.3,4.5,0.3-2,0.2,1.4c0,0.1,0,0.1,0,0.2c0,0.3,0,0.7,0,1c0,1.5,0,2.9,0,4.4c0,5.7,0,11.5,0,17.2     c0,21,0,42,0,63c0,30,0,59.9,0,89.9c0,34.4,0,68.8,0,103.3s0,68.8,0,103.3c0,30,0,59.9,0,89.9c0,21,0,42,0,63     C1150.5,617.8,1150.5,625.4,1150.5,633c0,9.2,8,17.9,17.5,17.5s17.5-7.7,17.5-17.5c0-8.3,0-16.5,0-24.8c0-21.9,0-43.7,0-65.6     c0-30.6,0-61.3,0-91.9c0-35.1,0-70.1,0-105.2c0-34.5,0-69.1,0-103.6c0-29.6,0-59.1,0-88.7c0-20.1,0-40.1,0-60.2     c0-16.7,1.4-33.4-12-46.3c-11.7-11.2-25.3-11.1-39.7-11.1c-14.2,0-28.3,0-42.5,0c-22.3,0-44.5,0-66.8,0c-28.5,0-56.9,0-85.4,0     c-32.9,0-65.7,0-98.6,0c-35,0-70,0-105,0c-35.3,0-70.6,0-105.9,0c-33.8,0-67.7,0-101.5,0c-30.1,0-60.1,0-90.2,0     c-24.5,0-49,0-73.6,0c-17.1,0-34.1,0-51.2,0c-7.5,0-15-0.1-22.5,0c-22.1,0.4-39.5,17.3-40.1,39.5c-0.1,2.3,0,4.6,0,6.9     c0,15.9,0,31.8,0,47.7c0,26.9,0,53.9,0,80.8c0,33.6,0,67.2,0,100.7c0,35.3,0,70.6,0,105.9c0,32.5,0,65.1,0,97.6     c0,25.3,0,50.6,0,75.9c0,13.2,0,26.4,0,39.6c0,13.2,4.6,25.6,15.3,33.9c7.8,6,16.9,8.5,26.6,8.5c9.5,0,19,0,28.5,0     c18.6,0,37.1,0,55.7,0c25.7,0,51.4,0,77.1,0c31,0,62.1,0,93.1,0c34.1,0,68.3,0,102.4,0c35.4,0,70.8,0,106.2,0     c34.9,0,69.7,0,104.6,0c32.1,0,64.1,0,96.2,0c27.6,0,55.1,0,82.7,0c20.9,0,41.7,0,62.6,0c12.3,0,24.7,0,37,0c2.3,0,4.7,0,7,0     c22.2-0.4,39.4-17.3,40.1-39.5c0.3-9.2-8.3-17.9-17.5-17.5C1158.3,615.9,1150.8,623.2,1150.5,633z"></path></g></g></g></svg>