<svg height='300px' width='300px'  fill="#ffffff" xmlns="http://www.w3.org/2000/svg" viewBox="0 0 100 100" x="0px" y="0px"><path d="M75.3 59.4V6.7c0-1.1-.9-2-2-2H16.6c-1.1 0-2 .9-2 2v73.4c0 1.1.9 2 2 2h36c2.3 7.5 9.2 13.1 17.5 13.1 10.1 0 18.3-8.2 18.3-18.3 0-8.3-5.6-15.3-13.1-17.5zM51.9 78.1H18.6V8.7h52.7v49.9c-.4 0-.8-.1-1.2-.1-4.4 0-8.5 1.6-11.7 4.2H28.1c-1.1 0-2 .9-2 2s.9 2 2 2h26.7c-1.9 2.9-3 6.3-3 10.1 0 .5 0 .9.1 1.3zm18.2 13.1c-7.9 0-14.3-6.4-14.3-14.3s6.4-14.3 14.3-14.3S84.4 69 84.4 76.9 78 91.2 70.1 91.2z"></path><path d="M78.2 74.9h-6.1v-6.1c0-1.1-.9-2-2-2s-2 .9-2 2v6.1H62c-1.1 0-2 .9-2 2s.9 2 2 2h6.1V85c0 1.1.9 2 2 2s2-.9 2-2v-6.1h6.1c1.1 0 2-.9 2-2s-.9-2-2-2zM28.1 19.8h33.6c1.1 0 2-.9 2-2s-.9-2-2-2H28.1c-1.1 0-2 .9-2 2s.9 2 2 2zM28.1 31.6h33.6c1.1 0 2-.9 2-2s-.9-2-2-2H28.1c-1.1 0-2 .9-2 2s.9 2 2 2zM28.1 43.3h33.6c1.1 0 2-.9 2-2s-.9-2-2-2H28.1c-1.1 0-2 .9-2 2s.9 2 2 2zM28.1 55.1h33.6c1.1 0 2-.9 2-2s-.9-2-2-2H28.1c-1.1 0-2 .9-2 2s.9 2 2 2z"></path></svg>