<?xml version="1.0" encoding="UTF-8" standalone="no"?>
<svg
        fill="#ffffff"
   xmlns:dc="http://purl.org/dc/elements/1.1/"
   xmlns:cc="http://creativecommons.org/ns#"
   xmlns:rdf="http://www.w3.org/1999/02/22-rdf-syntax-ns#"
   xmlns:svg="http://www.w3.org/2000/svg"
   xmlns="http://www.w3.org/2000/svg"
   xmlns:sodipodi="http://sodipodi.sourceforge.net/DTD/sodipodi-0.dtd"
   xmlns:inkscape="http://www.inkscape.org/namespaces/inkscape"
   version="1.1"
   x="0px"
   y="0px"
   viewBox="0 0 100 100"
   enable-background="new 0 0 76 76"
   xml:space="preserve"
   id="svg143"
   sodipodi:docname="noun_edit_1038134.svg"
   width="100"
   height="100"
   inkscape:version="0.92.2 5c3e80d, 2017-08-06"><metadata
     id="metadata149"><rdf:RDF><cc:Work
         rdf:about=""><dc:format>image/svg+xml</dc:format><dc:type
           rdf:resource="http://purl.org/dc/dcmitype/StillImage" /><dc:title></dc:title></cc:Work></rdf:RDF></metadata><defs
     id="defs147" /><sodipodi:namedview
     pagecolor="#ffffff"
     bordercolor="#666666"
     borderopacity="1"
     objecttolerance="10"
     gridtolerance="10"
     guidetolerance="10"
     inkscape:pageopacity="0"
     inkscape:pageshadow="2"
     inkscape:window-width="2073"
     inkscape:window-height="1318"
     id="namedview145"
     showgrid="false"
     inkscape:zoom="6.4105263"
     inkscape:cx="65.308676"
     inkscape:cy="34.22681"
     inkscape:window-x="0"
     inkscape:window-y="0"
     inkscape:window-maximized="0"
     inkscape:current-layer="svg143" /><g
     id="g137"
     transform="matrix(1.7329315,0,0,1.7329315,-15.917991,-15.745905)"><path
       d="m 65.269,18.765 -7.406,-7.406 c -0.391,-0.391 -1.023,-0.391 -1.414,0 l -4.761,4.761 -21.161,21.16 -2.116,2.116 c -0.113,0.113 -0.198,0.252 -0.246,0.405 l -3.438,10.845 c -0.113,0.355 -0.018,0.745 0.246,1.009 0.19,0.19 0.446,0.293 0.707,0.293 0.101,0 0.203,-0.016 0.302,-0.047 l 10.844,-3.438 c 0.153,-0.048 0.292,-0.133 0.405,-0.246 l 2.116,-2.116 21.161,-21.16 4.761,-4.761 c 0.391,-0.391 0.391,-1.024 0,-1.415 z M 35.99,46.63 l -8.773,2.782 2.782,-8.774 1.236,-1.236 5.992,5.992 z m 2.651,-2.651 -5.992,-5.992 19.747,-19.746 5.992,5.992 z m 21.16,-21.16 -5.992,-5.992 3.347,-3.347 5.992,5.992 z"
       id="path133"
       inkscape:connector-curvature="0" /><path
       d="m 59.438,35.934 c -0.553,0 -1,0.448 -1,1 v 26 h -46 v -45 h 27 c 0.553,0 1,-0.448 1,-1 0,-0.552 -0.447,-1 -1,-1 h -28 c -0.552,0 -1,0.448 -1,1 v 47 c 0,0.553 0.448,1 1,1 h 48 c 0.553,0 1,-0.447 1,-1 v -27 c 0,-0.553 -0.447,-1 -1,-1 z"
       id="path135"
       inkscape:connector-curvature="0" /></g></svg>